<svg width="40" height="44" viewBox="0 0 40 44" fill="none" xmlns="http://www.w3.org/2000/svg">
<path d="M39.1602 25.2608C38.6573 24.5854 38.0194 24.0858 37.3653 23.5955C37.3539 23.6075 37.3415 23.6195 37.3301 23.6325L37.3653 23.5955C37.3563 23.5728 37.3435 23.5519 37.3273 23.5335C36.7692 23.1467 36.2672 22.6721 35.6873 22.3215C35.5067 22.2123 35.3907 22.0874 35.4021 21.8441C35.4078 21.7331 35.3764 21.6184 35.3859 21.5027C35.4048 21.1335 35.3889 20.7635 35.3384 20.3971C35.287 19.9049 35.1996 19.4183 35.172 18.9169C35.1409 18.5378 35.0679 18.1631 34.9543 17.7993C34.7822 17.1951 34.5845 16.5965 34.3782 16.0072C34.2222 15.5585 34.0768 15.1089 33.7545 14.7406C33.3581 14.2882 32.9939 13.8034 32.5718 13.3751C32.1725 12.9726 31.7675 12.5933 31.2579 12.3574C31.0151 12.2553 30.7835 12.1294 30.5668 11.9818C30.2493 11.7519 29.8914 11.5803 29.5105 11.4757C28.8574 11.299 28.249 10.9567 27.5711 10.8827C27.4854 10.871 27.4039 10.8392 27.3338 10.7898C27.2637 10.7405 27.2071 10.6751 27.1689 10.5996C27.0149 10.3424 26.8543 10.0898 26.705 9.82982C26.1589 8.84512 25.3062 8.05416 24.2693 7.57055C23.176 7.06078 22.0513 6.66481 20.8724 6.47977L20.7669 6.46312C20.6385 6.44554 20.5834 6.37801 20.5986 6.2309C20.6377 5.83869 20.7073 5.44993 20.8068 5.06796C20.9637 4.47955 21.1424 3.89669 21.2612 3.29903C21.3297 2.95672 21.4352 2.77724 21.7794 2.69767C22.249 2.58943 22.5789 2.10279 22.2253 1.52363C22.1534 1.40724 22.074 1.29538 21.9876 1.18872C21.6972 0.844711 21.3451 0.554766 20.9485 0.332932C20.5026 0.069258 20.0462 -0.0833955 19.53 0.0479789C18.971 0.18953 18.7552 0.711327 19.0993 1.19519C19.2524 1.40983 19.3551 1.65223 19.5062 1.86224C19.6574 2.07225 19.6365 2.23231 19.5671 2.46175C19.2933 3.37305 18.8132 4.19552 18.5793 5.12162C18.4928 5.46116 18.2589 5.74334 18.2817 6.13006C18.2922 6.29752 17.9395 6.59265 17.7722 6.59265C17.5598 6.60836 17.3466 6.60836 17.1342 6.59265C16.7226 6.54084 16.309 6.50753 15.8983 6.4659C15.78 6.46261 15.6621 6.47888 15.5494 6.51401C15.0826 6.62225 14.7147 6.92663 14.3344 7.20511C14.0492 7.41605 13.7906 7.65752 13.7107 8.05257C13.6799 8.149 13.6388 8.24203 13.5881 8.33012C13.3238 8.92778 13.0471 9.51896 12.8009 10.1259C12.7258 10.3109 12.6421 10.371 12.4625 10.3646C11.2522 10.3211 10.0496 10.3646 8.86117 10.6625C8.05402 10.8669 7.24497 11.0381 6.4844 11.435C6.24167 11.5534 6.02898 11.7228 5.86169 11.9309C5.21425 12.7709 4.66284 13.6878 4.30443 14.7231C4.17893 15.0802 4.07911 15.4502 3.94601 15.8009C3.65414 16.5697 3.56573 17.3783 3.51724 18.1869C3.46305 19.014 3.82717 19.7134 4.23693 20.3805C4.2933 20.5235 4.40389 20.6401 4.54591 20.7061C4.77027 20.1982 4.96137 19.6885 5.19809 19.2083C5.49186 18.6116 5.72098 17.975 6.06989 17.4125C6.36461 16.937 6.65553 16.4587 6.9588 15.9896C7.34947 15.3582 7.77375 14.7471 8.2299 14.1587C8.52272 13.7951 8.81744 13.4343 9.0998 13.0624C9.19487 12.9328 9.31276 12.8255 9.41543 12.7053C9.69304 12.3777 10.0486 12.1761 10.3871 11.9448C10.793 11.6672 11.2113 11.5035 11.718 11.5358C12.4515 11.5886 13.1885 11.5728 13.9189 11.4887C14.7529 11.3906 15.5946 11.3702 16.4326 11.4276C17.4014 11.4896 18.372 11.5109 19.3427 11.5414C20.1461 11.5664 20.9494 11.5738 21.7385 11.7829C22.5884 12.0086 23.4669 12.0604 24.3225 12.2686C24.9369 12.4198 25.5377 12.6187 26.1194 12.8635C26.7814 13.147 27.4208 13.4782 28.0322 13.8543C28.318 14.042 28.5791 14.2629 28.8099 14.5121C29.2729 14.9747 29.6541 15.5095 30.0601 16.0238C30.3879 16.4368 30.6339 16.9055 30.7854 17.4061C30.909 17.815 31.0345 18.2239 31.1657 18.6291C31.2732 18.9511 31.4072 19.2629 31.5042 19.5885C31.6121 19.8998 31.6851 20.2214 31.7219 20.5479C31.7531 20.9652 31.8093 21.3804 31.8902 21.7914C32.0622 22.698 32.0584 23.6121 32.0803 24.5243C32.1031 25.567 32.0366 26.6087 32.0119 27.6505C31.9947 28.3999 31.9843 29.1465 31.8635 29.8894C31.7865 30.3622 31.7856 30.8497 31.7114 31.3234C31.565 32.2634 31.4623 33.208 31.3578 34.1535C31.2713 34.9362 31.1429 35.7124 31.0459 36.4933C30.9556 37.2223 30.9271 37.9578 30.7427 38.6767C30.5873 39.3225 30.3188 39.9375 29.9488 40.4946C29.8105 40.7223 29.5887 40.8906 29.328 40.9656C29.0667 41.0418 28.7988 41.0941 28.5275 41.1219C28.1967 41.1478 27.862 41.1367 27.5378 41.2144C26.6213 41.4291 25.6915 41.4809 24.7589 41.5392C23.7008 41.6058 22.6559 41.4392 21.6064 41.3662C20.7574 41.3069 19.916 41.1811 19.0594 41.1941C18.1249 41.2089 17.1903 41.2366 16.2567 41.2468C15.5331 41.2539 14.8103 41.1984 14.0967 41.0812C13.0871 40.9147 12.143 40.4937 11.1876 40.1264C10.8881 40.0117 10.6029 39.8563 10.2929 39.7702C10.2249 39.7495 10.1607 39.7183 10.1028 39.6777C9.62079 39.3447 9.09124 39.1282 8.55314 38.9376C8.06543 38.7618 7.59007 38.5287 7.23926 38.1299C6.74723 37.5797 6.3393 36.9634 6.02806 36.2999C5.9758 36.159 5.91222 36.0222 5.83792 35.891C5.67767 35.645 5.58653 35.3623 5.57362 35.0713C5.51088 34.1942 5.5375 33.3135 5.53464 32.4364C5.53464 31.4918 5.4738 30.5527 5.39679 29.6118C5.35876 29.1539 5.23897 28.7126 5.21235 28.2528C5.15436 27.2591 5.16197 26.2627 5.06119 25.2728C5.01936 24.8648 4.91668 24.8056 4.5982 25.0267C4.47588 25.1162 4.38598 25.2413 4.34151 25.3838C4.28037 25.5639 4.24019 25.7501 4.22172 25.9389C4.17988 26.2933 4.12665 26.6448 4.09052 26.9992C3.99545 28.0011 3.76157 28.9846 3.76823 29.9986C3.76823 30.0569 3.77488 30.1299 3.69312 30.142C3.62182 30.1281 3.60946 30.0606 3.58094 30.0087C3.41742 29.7136 3.27957 29.4009 3.06566 29.1409C2.74004 28.7302 2.46112 28.2863 2.23379 27.817C2.06298 27.5007 1.9844 27.1449 2.00657 26.7882C2.09498 25.7085 2.08262 24.6242 2.13681 23.5427C2.15216 23.1516 2.20951 22.763 2.30794 22.3835C2.40301 22.0347 2.58555 21.7359 2.69488 21.4037C2.93541 20.671 3.08562 19.9068 3.35372 19.1833C3.40506 19.0436 3.33566 18.9983 3.21777 18.9983C3.08595 19.0109 2.95948 19.0555 2.84984 19.1278C2.16851 19.4702 1.51785 19.8676 0.904697 20.3157C0.689098 20.4748 0.530434 20.6959 0.45121 20.9476C0.231855 21.5733 0.117572 22.2294 0.112758 22.8905C0.0899405 23.9082 0.0804337 24.9259 0.0100813 25.9435C-0.0488626 26.7845 0.154588 27.5515 0.517759 28.2935C0.683182 28.6321 0.922761 28.9106 1.07297 29.2649C1.30114 29.8052 1.52836 30.3575 1.91245 30.8072C2.06551 30.9857 2.24615 31.1282 2.3878 31.3197C2.64974 31.6756 2.93124 32.0175 3.23108 32.3439C3.59615 32.7362 3.74541 33.1294 3.66936 33.6567C3.65824 33.8107 3.65824 33.9653 3.66936 34.1193C3.66936 35.2156 3.60851 36.3129 3.66365 37.4092C3.68647 37.8551 3.69598 38.3223 3.94886 38.6933C4.5307 39.5426 5.07545 40.4188 5.78278 41.17C6.60419 42.0434 7.51402 42.7012 8.66437 42.9278C9.39642 43.0694 10.1408 43.1249 10.8691 43.2979C11.5973 43.4709 12.3484 43.4829 13.0804 43.6402C13.4968 43.7327 13.9199 43.7984 14.3401 43.8465C15.4574 43.9872 16.5883 43.9909 17.7066 43.8576C18.4538 43.7596 19.2068 43.6393 19.9683 43.7781C20.4458 43.8725 20.9303 43.9297 21.4172 43.9492C22.6227 43.9798 23.8291 44.051 25.0299 43.94C25.6317 43.8836 26.2354 43.8364 26.8295 43.7337C27.7365 43.5764 28.5893 43.223 29.4117 42.7863C29.7834 42.6048 30.1271 42.3734 30.4327 42.0989C30.5402 41.9962 30.6676 41.8926 30.6704 41.7288C30.6709 41.655 30.6917 41.5827 30.7307 41.5194C30.7696 41.4561 30.8253 41.4042 30.8919 41.3689C31.5004 40.9476 32.0366 40.4352 32.4806 39.8507C32.9626 39.2179 33.4313 38.5721 33.7165 37.8061C33.98 37.1212 34.1513 36.4059 34.2261 35.6782C34.2574 35.3498 34.2831 35.3081 34.5845 35.2563C34.9692 35.1723 35.3451 35.0537 35.7073 34.902C36.127 34.7312 36.5629 34.6008 37.0088 34.5125C37.4601 34.4425 37.8876 34.268 38.2551 34.0036C38.7577 33.6437 39.1074 33.1171 39.2382 32.5234C39.4198 31.7879 39.5053 31.0274 39.7563 30.3076C39.897 29.9042 39.9189 29.4703 39.9332 29.0327C39.9455 28.6293 39.9683 28.2204 39.994 27.8152C40.0282 27.2601 39.9122 26.7318 39.7449 26.21C39.6261 25.8362 39.3855 25.5614 39.1602 25.2608ZM3.79009 16.7732C3.79009 16.8102 3.79009 16.8472 3.79009 16.8833C3.79105 16.8472 3.79105 16.8102 3.79009 16.7732ZM3.98119 19.632C4.00495 19.6801 4.02682 19.7245 4.04774 19.7773C4.02682 19.7292 4.00495 19.6801 3.98119 19.632ZM6.45303 11.5664C6.23515 11.6819 6.04772 11.845 5.90542 12.0428C5.48711 12.5979 5.15436 13.2104 4.79404 13.8007C4.77218 13.8386 4.75126 13.8774 4.7332 13.9172C4.71513 13.957 4.69802 13.9986 4.68281 14.0403C4.42612 14.7379 4.15517 15.428 3.93841 16.1423C4.15517 15.429 4.42612 14.7379 4.68281 14.0403C4.69802 13.9986 4.71513 13.9579 4.7332 13.9172C4.75126 13.8765 4.77218 13.8386 4.79404 13.8007C5.15436 13.2067 5.48711 12.5905 5.90542 12.0428C6.04772 11.845 6.23515 11.6819 6.45303 11.5664C6.72036 11.4313 6.99595 11.3124 7.27824 11.2102C6.99429 11.3128 6.71711 11.4324 6.44827 11.5682L6.45303 11.5664ZM10.0477 10.6671C10.0706 10.6685 10.0934 10.6623 10.1123 10.6495C10.0921 10.6634 10.0675 10.6696 10.0429 10.6671H10.0477ZM12.7866 10.4747C12.8445 10.4531 12.896 10.4182 12.9369 10.3729C12.8947 10.4188 12.8414 10.4538 12.7819 10.4747H12.7866ZM13.3694 9.17295C13.3913 9.12114 13.4151 9.07118 13.4388 9.02122C13.4103 9.07026 13.3865 9.12114 13.3647 9.17295H13.3694ZM13.6413 8.55771C13.6242 8.60767 13.6119 8.63912 13.5957 8.67798C13.6071 8.63912 13.6214 8.59842 13.6366 8.55771H13.6413ZM13.9446 9.97692C13.9573 9.96826 13.9691 9.95834 13.9798 9.94732C13.9676 9.9586 13.9543 9.96853 13.9399 9.97692H13.9446ZM14.2013 10.3128C14.2046 10.3214 14.2088 10.3298 14.2137 10.3377C14.2071 10.33 14.2014 10.3216 14.1965 10.3128H14.2013ZM14.227 10.3646C14.2451 10.3876 14.2694 10.4052 14.2973 10.4155C14.2678 10.4062 14.2417 10.3889 14.2222 10.3655L14.227 10.3646ZM24.2921 9.5865C24.2894 9.58449 24.2871 9.58197 24.2855 9.5791C24.2857 9.58165 24.2863 9.58414 24.2874 9.5865H24.2921ZM24.0345 7.58998C23.8196 7.48729 23.6009 7.39477 23.3804 7.30688C23.6038 7.39199 23.8196 7.48451 24.0345 7.58998ZM23.0172 7.16625C22.9798 7.1536 22.9408 7.14582 22.9012 7.14312C22.9406 7.14493 22.9796 7.15177 23.0172 7.16348V7.16625ZM21.6967 6.76843C21.6187 6.7527 21.5417 6.7342 21.4638 6.71662C21.5417 6.73142 21.6187 6.74992 21.6967 6.76565V6.76843ZM20.7564 6.5945C20.8372 6.5945 20.9171 6.60652 20.996 6.61762C20.9171 6.60652 20.8372 6.5982 20.7564 6.5945C20.7172 6.59329 20.6783 6.5877 20.6404 6.57784C20.6784 6.58676 20.7173 6.59142 20.7564 6.59172V6.5945ZM19.9607 1.19797C19.994 1.18872 20.0263 1.17761 20.0558 1.16651C20.0225 1.17761 19.9902 1.18872 19.9607 1.19797C19.8983 1.2306 19.8491 1.28276 19.8209 1.346C19.8485 1.28172 19.8978 1.22853 19.9607 1.19519V1.19797ZM18.9567 4.3491C18.9497 4.35937 18.9451 4.37108 18.9434 4.38333C18.9447 4.37012 18.9492 4.35741 18.9567 4.34633V4.3491ZM18.354 6.33082C18.3017 6.39188 18.2494 6.45017 18.1943 6.5029C18.2494 6.44739 18.3017 6.38726 18.354 6.32805V6.33082ZM17.6647 6.70089C17.6309 6.6972 17.597 6.69534 17.563 6.69534C17.597 6.69473 17.6309 6.69596 17.6647 6.69904V6.70089ZM16.5134 6.63058C16.4317 6.6204 16.3565 6.61392 16.2776 6.6093C16.3565 6.61207 16.4355 6.61948 16.5134 6.62873V6.63058ZM15.5627 6.64723C15.5097 6.65651 15.4573 6.66887 15.4058 6.68424C15.457 6.66828 15.509 6.6553 15.5618 6.64538L15.5627 6.64723ZM14.3819 9.24696C14.419 9.24696 14.4342 9.21181 14.439 9.16C14.4371 9.21181 14.4219 9.24604 14.3819 9.24696ZM14.361 7.32908C14.3981 7.30318 14.4352 7.27635 14.4694 7.24859L14.6082 7.1385L14.477 7.24859C14.438 7.27635 14.4009 7.30318 14.3639 7.32908H14.361ZM16.3043 10.2212C16.502 10.2095 16.7001 10.2036 16.8985 10.2036C16.702 10.2036 16.5049 10.2095 16.3071 10.2212H16.3043ZM21.0055 10.3359C21.0317 10.3158 21.0496 10.2872 21.0559 10.2554C21.0503 10.2869 21.0335 10.3154 21.0084 10.3359H21.0055ZM22.4411 10.3562C22.4705 10.3388 22.4956 10.3151 22.5143 10.2869C22.4964 10.3148 22.4724 10.3384 22.4439 10.3562H22.4411ZM23.0258 10.3183C23.0163 10.3183 23.0087 10.3007 23.001 10.2822C23.0087 10.3007 23.0163 10.3165 23.0258 10.3183ZM23.9755 10.3007C23.9551 10.2868 23.9314 10.2782 23.9066 10.2758C23.8818 10.2733 23.8567 10.2772 23.8339 10.2869C23.5553 10.1675 23.2634 10.2258 22.9782 10.223C22.8403 10.1823 22.6931 10.1823 22.5552 10.223C22.5111 10.2017 22.463 10.1897 22.4139 10.1876C22.3647 10.1855 22.3157 10.1935 22.27 10.211C22.1071 10.1732 21.9379 10.1701 21.7737 10.2017C21.6118 10.1444 21.4338 10.148 21.2746 10.2119C21.2418 10.1955 21.2054 10.187 21.1686 10.187C21.1317 10.187 21.0953 10.1955 21.0626 10.2119C20.4237 10.112 19.781 10.1527 19.1393 10.1601C18.9313 10.1012 18.7117 10.0923 18.4994 10.1342C18.4226 10.0977 18.3382 10.0787 18.2527 10.0787C18.1672 10.0787 18.0828 10.0977 18.006 10.1342C17.9835 10.1231 17.9582 10.1185 17.9331 10.121C17.908 10.1235 17.8842 10.1328 17.8644 10.1481C17.8577 10.211 17.8368 10.2628 17.7693 10.2702C17.8349 10.2628 17.8558 10.211 17.8644 10.1481C17.8324 10.1264 17.7945 10.1148 17.7555 10.1148C17.7166 10.1148 17.6786 10.1264 17.6467 10.1481C17.6146 10.1301 17.5787 10.1196 17.5417 10.1174C17.5048 10.1151 17.4678 10.1212 17.4337 10.1351C16.5258 10.0102 15.6274 10.099 14.7327 10.2804C14.7096 10.2701 14.6841 10.2659 14.6587 10.2682C14.6334 10.2705 14.6091 10.2791 14.5882 10.2933C14.4998 10.1194 14.6225 10.0223 14.7223 9.95102C15.1625 9.63831 15.4629 9.17758 15.8118 8.7705C15.9544 8.60489 16.1826 8.53921 16.2653 8.30791H16.2871L16.2976 8.28663C16.8832 7.97948 17.4632 7.64827 18.1486 7.73153C18.235 7.76849 18.331 7.77851 18.4234 7.76021C18.4405 7.79722 18.4614 7.80925 18.4909 7.77409C18.5217 7.79923 18.5581 7.81701 18.5972 7.82601C18.6364 7.83501 18.6771 7.83497 18.7162 7.8259C18.7404 7.85565 18.7744 7.87646 18.8124 7.88487C18.8505 7.89329 18.8903 7.8888 18.9254 7.87216C18.9453 7.88931 18.9696 7.90087 18.9957 7.90559C19.0218 7.91032 19.0488 7.90803 19.0737 7.89899C19.1868 7.9915 19.3228 7.973 19.4483 7.96468C19.7667 7.9434 20.0843 7.97208 20.399 7.973C20.6433 7.973 20.8924 8.02019 21.1272 7.90084C21.2924 7.92679 21.4611 7.92209 21.6244 7.88696C21.6699 7.9047 21.7185 7.91343 21.7675 7.91264C21.8165 7.91185 21.8648 7.90154 21.9096 7.88234C21.9417 7.89894 21.9774 7.90762 22.0137 7.90762C22.05 7.90762 22.0858 7.89894 22.1178 7.88234C22.1511 7.90101 22.1888 7.91084 22.2272 7.91084C22.2656 7.91084 22.3033 7.90101 22.3365 7.88234C22.4258 7.92195 22.5261 7.93171 22.6217 7.91009C22.6493 7.93904 22.6851 7.95928 22.7246 7.96818C22.7641 7.97709 22.8054 7.97426 22.8432 7.96005C22.8673 7.9785 22.8949 7.99203 22.9245 7.99982C22.9541 8.00761 22.985 8.00951 23.0153 8.00538C23.1237 8.13676 23.1836 8.30884 23.3148 8.41986C23.3148 8.38655 23.3148 8.35602 23.3081 8.32734C23.3081 8.3551 23.3081 8.38563 23.3148 8.41986L23.3319 8.44762C23.3299 8.48944 23.3413 8.53084 23.3647 8.56601C23.3881 8.60118 23.4221 8.62836 23.4621 8.64375V8.66596L23.4812 8.67613C23.5382 8.88707 23.6856 9.0277 23.8177 9.18035C23.8156 9.20577 23.8229 9.23109 23.8382 9.25177C23.8535 9.27245 23.8759 9.28715 23.9014 9.29322C23.9964 9.53284 24.1923 9.68735 24.3568 9.8659C24.4147 9.92882 24.4822 9.9834 24.5355 10.0509C24.5621 10.0787 24.5805 10.113 24.5887 10.1501C24.5969 10.1873 24.5946 10.2259 24.5821 10.2619C24.5421 10.3544 24.4642 10.3165 24.3967 10.3192C24.2579 10.3202 24.12 10.2415 23.9784 10.3007H23.9755ZM24.6838 10.3868C24.6416 10.4155 24.5917 10.4319 24.5402 10.434C24.5022 10.434 24.4651 10.4395 24.4271 10.4404C24.4651 10.4404 24.5022 10.4404 24.5402 10.434C24.5927 10.4324 24.6436 10.416 24.6867 10.3868H24.6838ZM24.4224 12.1603C24.5887 12.1992 24.7532 12.2436 24.9167 12.2908C24.7561 12.2436 24.5916 12.1992 24.4252 12.1603H24.4224ZM25.6782 8.71591C25.7932 8.83363 25.9017 8.95716 26.0034 9.08598C25.9027 8.95723 25.7951 8.8337 25.6811 8.71591H25.6782ZM26.4217 9.70862C26.3894 9.65219 26.357 9.5976 26.3266 9.54302C26.3599 9.5976 26.3922 9.65219 26.4217 9.70862C26.5101 9.86498 26.6118 10.0149 26.7126 10.162C26.6128 10.0149 26.513 9.86498 26.4245 9.70862H26.4217ZM27.0197 10.606C27.0349 10.6301 27.0511 10.6523 27.0682 10.6745C27.0539 10.6523 27.0378 10.6301 27.0263 10.606H27.0197ZM28.0398 11.1186C28.0712 11.1186 28.1016 11.1269 28.1349 11.1325C28.1044 11.1269 28.0721 11.1223 28.0426 11.1186H28.0398ZM28.4477 11.2333C28.7976 11.4017 29.1668 11.5291 29.5476 11.6126C29.7207 11.6596 29.8848 11.7336 30.0334 11.8319C30.1285 11.8874 30.216 11.9392 30.3091 11.991C30.2141 11.9392 30.1247 11.8874 30.0334 11.8319C29.8848 11.7336 29.7207 11.6596 29.5476 11.6126C29.1684 11.5287 28.8008 11.4014 28.4524 11.2333H28.4477ZM30.3063 16.0886C30.0857 15.8111 29.8775 15.5335 29.6617 15.256C29.8775 15.5335 30.0857 15.8185 30.3063 16.0886C30.3766 16.1751 30.442 16.2653 30.5021 16.3588C30.4429 16.2653 30.3785 16.1752 30.3091 16.0886H30.3063ZM30.9242 17.2775C30.9357 17.32 30.948 17.3616 30.9604 17.4033C30.9461 17.3616 30.9338 17.32 30.9242 17.2775ZM31.3483 18.6763C31.3748 18.7888 31.4108 18.8989 31.4557 19.0057C31.4101 18.899 31.3736 18.7888 31.3464 18.6763H31.3483ZM2.94777 19.2074C2.8527 19.2453 2.76428 19.286 2.67587 19.3313C2.76428 19.286 2.8546 19.2471 2.94777 19.2074ZM0.427442 23.3845C0.445505 23.3457 0.46547 23.3031 0.479731 23.2642C0.46547 23.3031 0.447407 23.3429 0.427442 23.3845ZM0.991212 25.9001C0.979459 25.9019 0.967448 25.9014 0.955885 25.8987C0.944322 25.8959 0.933438 25.891 0.923874 25.8841C0.91431 25.8772 0.906257 25.8685 0.900188 25.8585C0.89412 25.8486 0.890158 25.8375 0.888535 25.826C0.878441 25.7903 0.882642 25.7523 0.900288 25.7195C0.917933 25.6867 0.94771 25.6616 0.983606 25.6493C1.03304 25.6318 1.06727 25.666 1.07868 25.7243C1.09104 25.8159 1.05776 25.8862 0.991212 25.9001ZM1.32491 21.3223C1.37625 21.2918 1.42568 21.2557 1.47512 21.2224C1.42568 21.2557 1.38005 21.2918 1.32491 21.3223ZM1.48178 25.7234C1.42789 25.7065 1.38175 25.6719 1.35136 25.6254C1.32098 25.5789 1.30825 25.5236 1.3154 25.4689C1.32301 25.4088 1.36864 25.394 1.42378 25.3903C1.54547 25.4199 1.5854 25.5115 1.57304 25.641C1.56734 25.7048 1.52741 25.7465 1.48178 25.7234ZM1.59586 26.0351C1.5816 26.0407 1.55878 26.0203 1.53882 26.0111C1.54738 25.9898 1.55213 25.9574 1.56639 25.9519C1.58065 25.9463 1.60347 25.9667 1.62248 25.9759C1.61393 26.0009 1.61012 26.0324 1.59586 26.0388V26.0351ZM1.73752 30.3104C1.71565 30.265 1.69283 30.2178 1.67002 30.1744C1.69283 30.2197 1.71565 30.2669 1.73752 30.3104ZM1.9172 23.9082C1.9172 24.0414 1.92481 24.1755 1.92671 24.3097C1.92766 24.1765 1.921 24.0423 1.9172 23.9091V23.9082ZM2.00467 19.916C1.9828 19.9494 1.96188 19.9808 1.94002 20.0086C1.96188 19.9817 1.9828 19.9503 2.00467 19.917V19.916ZM2.93826 30.6268C2.89643 30.6323 2.87646 30.5999 2.87551 30.5574C2.87456 30.5148 2.88882 30.4806 2.92685 30.475C2.96488 30.4695 2.98865 30.5009 2.99055 30.5444C2.99245 30.5879 2.97344 30.6268 2.93826 30.6268ZM3.05425 31.6204C3.06354 31.612 3.07412 31.6052 3.08562 31.6C3.07392 31.606 3.06332 31.6138 3.05425 31.6232V31.6204ZM3.17404 31.0181C3.19876 31.0366 3.22252 31.056 3.24724 31.0727C3.22252 31.0588 3.19876 31.0394 3.17404 31.0209V31.0181ZM3.3908 31.959C3.40696 31.9701 3.42217 31.9849 3.43833 31.996C3.42217 31.9877 3.40696 31.9729 3.3908 31.9618V31.959ZM3.50108 31.539C3.49918 31.5676 3.49918 31.5964 3.50108 31.625C3.4993 31.5973 3.4993 31.5695 3.50108 31.5418V31.539ZM3.51629 32.0016C3.52754 31.995 3.53752 31.9865 3.54576 31.9766C3.53816 31.9889 3.52814 31.9995 3.51629 32.008V32.0016ZM4.01256 29.3186C4.02397 29.3639 4.03633 29.4111 4.04679 29.449C4.03633 29.4074 4.02397 29.3639 4.01256 29.3186C4.00126 29.2736 3.99363 29.2278 3.98974 29.1816C3.99282 29.2322 4.00045 29.2823 4.01256 29.3315V29.3186ZM3.95172 29.9486C4.00674 29.8982 4.0468 29.8343 4.0677 29.7636C4.04856 29.8379 4.00837 29.9056 3.95172 29.9588V29.9486ZM4.13615 35.2831C4.13108 35.3831 4.12823 35.483 4.1276 35.5829C4.1276 35.483 4.13045 35.3831 4.13615 35.2831C4.14376 35.1305 4.14471 34.9769 4.14376 34.8206C4.14471 34.9871 4.14376 35.1407 4.13615 35.2933V35.2831ZM4.16753 33.4726C4.17692 33.4586 4.18489 33.4437 4.19129 33.4282C4.18558 33.4472 4.1776 33.4655 4.16753 33.4828V33.4726ZM4.28827 27.5006C4.3045 27.4936 4.32008 27.4852 4.33485 27.4756C4.3205 27.4888 4.3049 27.5005 4.28827 27.5108V27.5006ZM4.36908 27.1934C4.37973 27.2117 4.38926 27.2305 4.3976 27.2499C4.38891 27.234 4.37939 27.2186 4.36908 27.2036V27.1934ZM4.37668 26.7558C4.40246 26.7333 4.43013 26.7129 4.45939 26.6948C4.42971 26.7161 4.40204 26.7399 4.37668 26.766V26.7558ZM4.46225 28.6062C4.47532 28.6062 4.48815 28.6095 4.49949 28.6159C4.51083 28.6222 4.52028 28.6313 4.52689 28.6423C4.51949 28.6325 4.50971 28.6247 4.49842 28.6195C4.48713 28.6143 4.4747 28.612 4.46225 28.6127V28.6062ZM4.52689 26.6356C4.54067 26.6159 4.55155 26.5944 4.55922 26.5717C4.55215 26.5966 4.54125 26.6203 4.52689 26.642V26.6356ZM4.44228 25.4328C4.46348 25.3484 4.51299 25.2732 4.58299 25.2191C4.51228 25.2741 4.4627 25.3507 4.44228 25.4365V25.4328ZM4.77788 25.0841C4.72956 25.0977 4.68653 25.1251 4.65429 25.1627C4.68756 25.1262 4.73124 25.1001 4.77978 25.0878L4.77788 25.0841ZM4.72939 28.3222C4.74819 28.3154 4.76761 28.3104 4.78739 28.3074C4.76758 28.3107 4.74815 28.316 4.72939 28.3231V28.3222ZM4.91763 27.0158C4.92385 27.0343 4.92612 27.0538 4.92429 27.0732C4.92573 27.0547 4.92347 27.0362 4.91763 27.0186V27.0158ZM4.96327 26.3747C4.95566 26.3444 4.94901 26.3136 4.9433 26.2822C4.94901 26.3124 4.95566 26.3432 4.96327 26.3747C4.96626 26.3875 4.96848 26.4005 4.96992 26.4135C4.96844 26.4008 4.96622 26.3881 4.96327 26.3756V26.3747ZM5.04978 39.2484C5.08983 39.2772 5.12823 39.3081 5.16482 39.341C5.12821 39.3084 5.08981 39.2778 5.04978 39.2494V39.2484ZM5.22661 29.8256C5.23327 29.8903 5.23992 29.9551 5.24753 30.0198C5.23992 29.956 5.23327 29.8913 5.22661 29.8265V29.8256ZM5.4082 32.2144C5.4082 32.2033 5.4082 32.1931 5.40059 32.1829C5.40059 32.1931 5.40059 32.2033 5.4082 32.2144C5.4137 32.2324 5.41627 32.2511 5.41581 32.2699C5.41617 32.2514 5.41361 32.233 5.4082 32.2153V32.2144ZM5.64968 35.977C5.70043 36.0701 5.76096 36.1579 5.83031 36.2389C5.76102 36.1582 5.70049 36.0708 5.64968 35.978V35.977ZM5.97958 36.5821C6.00741 36.6833 6.05102 36.7797 6.10887 36.868C6.05177 36.7798 6.00881 36.6838 5.98148 36.583L5.97958 36.5821ZM8.50751 41.974C8.51402 41.9986 8.52228 42.0227 8.53223 42.0462C8.52297 42.0229 8.51535 41.9991 8.50941 41.9749L8.50751 41.974ZM9.38596 42.2719C9.38852 42.2864 9.39233 42.3006 9.39737 42.3145C9.39303 42.3009 9.38985 42.2869 9.38786 42.2728L9.38596 42.2719ZM10.0305 39.8082C10.0502 39.823 10.0702 39.8368 10.0904 39.8498C10.0721 39.8375 10.0527 39.8239 10.0324 39.8091L10.0305 39.8082ZM10.2863 39.9349C10.3469 39.9452 10.4069 39.9588 10.466 39.9756C10.4075 39.9592 10.3482 39.9459 10.2882 39.9358L10.2863 39.9349ZM10.5715 42.8955C10.6162 42.9214 10.6561 42.9519 10.6932 42.9769C10.6542 42.9556 10.6143 42.9251 10.5696 42.8992L10.5715 42.8955ZM13.8923 41.1931C13.6128 41.109 13.3266 41.0507 13.0462 40.972C13.3314 41.0507 13.6166 41.109 13.8923 41.1931C13.9237 41.2024 13.9551 41.2135 13.9874 41.2246C13.9522 41.2107 13.9208 41.1996 13.8895 41.1904L13.8923 41.1931ZM16.1037 43.5014C16.1101 43.5093 16.1171 43.5167 16.1246 43.5237C16.116 43.5159 16.1081 43.5076 16.1008 43.4987L16.1037 43.5014ZM16.3566 43.2554C16.4649 43.2905 16.5743 43.321 16.6836 43.3479C16.5686 43.3183 16.4621 43.2877 16.3537 43.2526L16.3566 43.2554ZM16.368 41.393C16.5134 41.393 16.6589 41.3976 16.8034 41.4069C16.656 41.3948 16.5106 41.3921 16.3651 41.3902L16.368 41.393ZM17.1608 41.43C17.2632 41.431 17.3654 41.4254 17.467 41.4133C17.3644 41.4246 17.2612 41.4293 17.158 41.4272L17.1608 41.43ZM17.852 41.3375C17.9464 41.3238 18.0419 41.3189 18.1372 41.3227C18.0411 41.3175 17.9446 41.3212 17.8492 41.3338L17.852 41.3375ZM18.431 41.3273C18.4949 41.326 18.5567 41.3492 18.6031 41.3921C18.5801 41.3699 18.5528 41.3524 18.5227 41.3406C18.4927 41.3288 18.4605 41.3231 18.4281 41.3236L18.431 41.3273ZM19.0318 41.7057C18.9941 41.6941 18.9575 41.6792 18.9225 41.6613C18.9567 41.6778 18.9924 41.6914 19.029 41.702L19.0318 41.7057ZM19.0318 42.2321C19.0784 42.2145 19.1269 42.1933 19.1687 42.1738C19.1165 42.1914 19.0708 42.2108 19.0242 42.2284L19.0318 42.2321ZM20.8097 41.7779L20.9123 41.7455L20.8097 41.7788C20.7678 41.7908 20.725 41.7945 20.6832 41.8038C20.7174 41.7908 20.7602 41.7871 20.8021 41.7742L20.8097 41.7779ZM20.5539 41.8787C20.5414 41.8938 20.5259 41.9064 20.5083 41.9157C20.5235 41.9046 20.5364 41.8908 20.5463 41.875L20.5539 41.8787ZM19.7154 41.9657C19.7154 41.9509 19.7154 41.9361 19.7154 41.9231C19.7059 41.9324 19.7059 41.9472 19.7059 41.962L19.7154 41.9657ZM20.032 41.7705C20.0881 41.785 20.1449 41.7967 20.2022 41.8056C20.1422 41.7958 20.0829 41.7828 20.0244 41.7668L20.032 41.7705ZM21.227 43.7836C20.8952 43.7235 20.5615 43.6994 20.2231 43.6717C20.5587 43.6994 20.8952 43.7235 21.227 43.7836ZM22.5333 41.6742C22.6148 41.6422 22.7001 41.6202 22.7871 41.6086C22.6988 41.6199 22.6122 41.6419 22.5295 41.6742H22.5333ZM25.2095 41.6308C25.3103 41.6308 25.4101 41.6261 25.51 41.6206C25.4101 41.6261 25.3065 41.6298 25.2057 41.6308H25.2095ZM26.4065 41.5318C26.3067 41.5456 26.2068 41.5577 26.107 41.5697C26.2021 41.5577 26.3067 41.5456 26.4065 41.5318C26.5919 41.5068 26.7763 41.4725 26.9607 41.4392C26.7725 41.4725 26.5881 41.5068 26.4027 41.5318H26.4065ZM29.6646 40.9767C29.5875 41.009 29.5086 41.0423 29.4297 41.0692C29.5086 41.0386 29.5875 41.0053 29.6646 40.9767C29.686 40.9675 29.7067 40.9567 29.7264 40.9443C29.7055 40.9569 29.6835 40.9677 29.6608 40.9767H29.6646ZM30.0334 40.5733C30.1114 40.465 30.1874 40.3559 30.2606 40.2439C30.1836 40.3559 30.1076 40.465 30.0296 40.5733H30.0334ZM30.6371 39.5371C30.6883 39.4094 30.7299 39.2783 30.7617 39.1448C30.7287 39.2784 30.6858 39.4095 30.6333 39.5371H30.6371ZM30.9461 38.7877C30.9582 38.7803 30.9688 38.7709 30.9775 38.7599C30.9676 38.7713 30.9557 38.7807 30.9423 38.7877H30.9461ZM31.1096 37.0946C31.1008 37.1471 31.0922 37.2007 31.084 37.2556C31.0928 37.2013 31.1014 37.1477 31.1096 37.0946C31.1286 36.9762 31.1458 36.8578 31.1629 36.7384C31.142 36.8578 31.1248 36.9762 31.1058 37.0946H31.1096ZM31.4899 34.2349C31.4167 34.7105 31.3597 35.1879 31.2998 35.6652C31.3578 35.1879 31.4148 34.7105 31.4899 34.2349C31.521 34.0363 31.5501 33.8356 31.5774 33.6326C31.5489 33.8356 31.5188 34.0363 31.4871 34.2349H31.4899ZM31.6667 32.6122C31.6782 32.2319 31.8246 31.872 31.817 31.4825C31.8217 31.8693 31.6753 32.2319 31.6639 32.6122H31.6667ZM31.8227 33.1673C31.8251 33.1575 31.8283 33.1479 31.8322 33.1386C31.8132 33.1303 31.7922 33.1127 31.778 33.1146C31.778 33.1007 31.7865 33.0868 31.7951 33.0831C31.8036 33.0794 31.8331 33.0979 31.8531 33.1071C31.8379 33.1247 31.8341 33.1562 31.8198 33.1627L31.8227 33.1673ZM32.1744 25.938C32.1744 25.8455 32.1839 25.753 32.1906 25.666C32.1839 25.7585 32.1782 25.851 32.1744 25.938C32.1592 26.3469 32.1564 26.7568 32.1535 27.1666C32.1535 26.7521 32.1602 26.3423 32.1716 25.9334L32.1744 25.938ZM31.9453 20.7746C31.9405 20.6957 31.9548 20.6168 31.9871 20.5442C31.9546 20.6151 31.9393 20.6924 31.9425 20.77L31.9453 20.7746ZM32.067 20.4378C32.1062 20.4043 32.1304 20.3571 32.1345 20.3065C32.1288 20.3558 32.1039 20.4011 32.0651 20.4332L32.067 20.4378ZM32.1526 22.4973C32.147 22.358 32.1263 22.2197 32.0908 22.0847C32.125 22.2183 32.1447 22.355 32.1497 22.4926L32.1526 22.4973ZM31.893 30.8238C31.9025 30.797 31.9101 30.7711 31.9168 30.7443C31.9073 30.7692 31.8997 30.7951 31.8902 30.822L31.893 30.8238ZM31.9463 30.1762C31.9463 30.1281 31.9463 30.0837 31.9463 30.0328C31.9444 30.0818 31.9444 30.1299 31.9434 30.1781L31.9463 30.1762ZM31.952 29.9616C31.9545 29.9144 31.9599 29.8675 31.9681 29.8209C31.9588 29.868 31.9525 29.9156 31.9491 29.9634L31.952 29.9616ZM32.0394 29.6192C32.0302 29.6351 32.022 29.6515 32.0147 29.6683C32.0211 29.6522 32.0284 29.6364 32.0366 29.6211L32.0394 29.6192ZM32.2134 31.3197C32.2305 31.3132 32.2467 31.3058 32.2619 31.2984C32.2438 31.3077 32.2277 31.3151 32.2106 31.3216L32.2134 31.3197ZM32.337 31.0338C32.3456 31.0509 32.3529 31.0685 32.3589 31.0866C32.3519 31.0691 32.3436 31.0521 32.3341 31.0357L32.337 31.0338ZM32.6022 32.9323H32.5946L32.606 32.9036L32.5519 32.8786C32.5576 32.8666 32.5642 32.8555 32.569 32.8444L32.627 32.8712L32.6022 32.9323ZM33.899 15.1255C33.9245 15.1594 33.9464 15.1957 33.9646 15.2337C33.9454 15.1962 33.9225 15.1605 33.8962 15.1274L33.899 15.1255ZM35.1872 20.0576C35.1398 19.9705 35.1062 19.8769 35.0874 19.78C35.1051 19.8774 35.1378 19.9716 35.1844 20.0594L35.1872 20.0576ZM34.2631 16.1941C34.3116 16.3199 34.3582 16.4457 34.4019 16.5734C34.3582 16.4429 34.3116 16.3171 34.2631 16.1941ZM36.3547 32.1274C36.3337 32.2035 36.3337 32.2835 36.3547 32.3596C36.3845 32.3835 36.4061 32.4158 36.4167 32.452C36.4272 32.4882 36.4261 32.5266 36.4136 32.5622C36.3708 32.8083 36.3243 33.0544 36.2796 33.3024C36.2675 33.3913 36.2328 33.4758 36.1788 33.5485C36.2195 33.4826 36.2466 33.4097 36.2587 33.3338C36.3033 33.0877 36.3537 32.8425 36.3927 32.5937C36.4052 32.5581 36.4063 32.5196 36.3957 32.4834C36.3852 32.4472 36.3636 32.415 36.3338 32.3911C36.2697 32.5127 36.2371 32.6476 36.2387 32.7843C36.2273 33.1673 36.1018 33.4744 35.8137 33.6919H35.7919L35.6388 33.7529C35.6384 33.7868 35.6259 33.8195 35.6036 33.8454C35.6119 33.827 35.6168 33.8073 35.6179 33.7871L34.4637 34.0841C34.3829 33.8926 34.4295 33.7261 34.4495 33.567C34.5369 32.8629 34.652 32.1635 34.709 31.4548C34.7984 30.3307 35.0266 29.2242 35.0969 28.0973C35.0577 28.1187 35.0233 28.1476 34.9961 28.1825C35.0252 28.1331 35.0676 28.0924 35.1188 28.065C35.135 28.0435 35.1437 28.0176 35.1437 27.9909C35.1437 27.9643 35.135 27.9384 35.1188 27.9169H35.1036C35.1782 27.5678 35.2221 27.2131 35.2348 26.8567C35.2481 26.0684 35.2462 25.2793 35.2604 24.491C35.2661 24.1866 35.2889 23.8823 35.3194 23.5797C35.3403 23.3799 35.3954 23.3577 35.5494 23.4558C35.7034 23.5538 35.7995 23.6898 35.9668 23.7333C35.867 23.4123 35.5808 23.3151 35.3517 23.1588C35.3434 23.1526 35.3339 23.1483 35.3237 23.146C35.3136 23.1437 35.3031 23.1435 35.2928 23.1454C35.2826 23.1473 35.2729 23.1513 35.2644 23.1571C35.2558 23.1629 35.2487 23.1704 35.2433 23.1791C35.2728 23.1255 35.3194 23.0866 35.3726 23.1273C35.6017 23.2837 35.8888 23.3799 35.9877 23.7009C36.1474 23.6889 36.2653 23.7333 36.2672 23.9368L36.4203 24.1589C36.5667 24.627 36.7055 25.097 36.6998 25.6003C36.6998 25.79 36.677 25.9805 36.677 26.1702C36.677 26.7786 36.6408 27.3866 36.5686 27.9909C36.5163 28.4452 36.3718 28.893 36.3642 29.3408C36.3537 30.0041 36.2691 30.6564 36.2339 31.3142C36.2216 31.5894 36.2629 31.8644 36.3556 32.1246L36.3547 32.1274ZM36.6399 28.6626C36.6399 28.6737 36.6399 28.6839 36.6399 28.6941C36.6389 28.6839 36.638 28.6709 36.638 28.6598L36.6399 28.6626ZM36.6713 28.2491C36.6943 28.2034 36.7137 28.1561 36.7293 28.1075C36.7129 28.1552 36.6929 28.2016 36.6694 28.2463L36.6713 28.2491ZM36.7825 27.4682C36.7825 27.3683 36.7892 27.2675 36.7911 27.1666C36.7873 27.2647 36.7816 27.3655 36.7806 27.4654L36.7825 27.4682ZM35.963 22.6703C36.2786 22.8895 36.5895 23.1162 36.8928 23.3568C36.5848 23.1116 36.2739 22.8849 35.963 22.6703ZM37.0088 27.4895C37.0088 27.4895 37.0154 27.4701 37.0183 27.4608C37.0002 27.4525 36.9784 27.434 36.9641 27.4368C36.9688 27.422 36.9736 27.409 36.9822 27.4053C36.9907 27.4016 37.0202 27.4201 37.0392 27.4294C37.0268 27.4506 37.023 27.4812 37.0088 27.4895ZM38.7714 24.9684C38.6354 24.825 38.4938 24.6909 38.3483 24.5558C38.4938 24.6881 38.6335 24.825 38.7714 24.9684Z" fill="#464646"/>
<path d="M30.6122 23.1128C30.5206 22.895 30.4174 22.6819 30.3032 22.4744C29.5588 21.2717 28.5463 20.4298 27.2515 20.0607C25.8615 19.6647 24.5515 19.945 23.3811 20.8591C22.4941 21.5511 21.9437 22.4985 21.6642 23.6346C21.6385 23.7401 21.6594 23.8714 21.5225 23.939C19.9187 22.4717 18.2388 22.5799 16.5313 23.7077C16.5167 23.6998 16.503 23.6905 16.4904 23.6799C16.4528 23.6131 16.4344 23.5377 16.4372 23.4616C16.3496 22.7346 16.075 22.0409 15.6386 21.4447C14.6955 20.155 13.412 19.6101 11.9242 19.6786C10.4743 19.7452 9.21369 20.378 8.18217 21.4697C6.88921 22.8399 6.28076 24.5043 6.56597 26.4656C6.86354 28.5288 8.31907 30.0738 10.3203 30.3856C11.4849 30.5706 12.5849 30.269 13.605 29.6723C14.5139 29.1403 15.2402 28.377 15.8087 27.4398C15.8851 27.3083 15.9409 27.1664 15.9742 27.0189C16.0588 26.6756 15.9504 26.3565 15.6966 26.1779C15.4636 26.0132 15.2621 26.04 14.956 26.2769C14.8837 26.2241 14.8313 26.1496 14.8067 26.065C15.1128 25.373 15.1537 24.6467 15.0406 23.9029C14.9322 23.1914 14.6603 22.566 14.1688 22.0655C13.5033 21.3864 12.6106 21.219 11.8091 21.6455C11.0685 22.0396 10.6084 22.6909 10.4021 23.5513C10.2851 23.6244 10.3194 23.7364 10.3298 23.8492C10.3067 23.8837 10.291 23.9224 10.2837 23.9629C10.2763 24.0035 10.2775 24.0451 10.287 24.0852C10.2582 24.1135 10.2401 24.1505 10.2356 24.1901C10.2311 24.2298 10.2405 24.2697 10.2623 24.3035C10.2115 24.4537 10.2115 24.6158 10.2623 24.7661C10.2528 25.5987 10.4819 26.3527 10.9801 26.9865C11.5163 27.6674 12.216 27.9459 13.0431 27.8191C13.1791 27.7988 13.3635 27.6341 13.4405 27.8608C13.509 28.0606 13.2818 28.105 13.1781 28.2114C13.1695 28.2201 13.16 28.2279 13.1496 28.2345C12.3282 28.7073 11.4602 29.0015 10.5257 28.8248C9.34489 28.6028 8.49496 27.9126 8.09851 26.6479C8.04337 26.4702 8.04812 26.2676 7.92263 26.1168C7.95428 25.9999 7.94898 25.8764 7.90742 25.7625C7.95495 25.3277 8.00186 24.8922 8.04812 24.4561C8.17267 24.1962 8.2164 23.9057 8.33904 23.6411C8.86193 22.5114 9.65007 21.6723 10.731 21.2005C11.6741 20.7888 12.6448 20.7518 13.5926 21.231C14.2943 21.5853 14.7953 22.1608 15.1138 22.9185C15.3489 23.4961 15.4885 24.1062 15.5273 24.7263C15.5521 25.0529 15.7374 25.2074 16.0512 25.2074C16.1218 25.2011 16.1929 25.2052 16.2622 25.2194C16.5094 25.299 16.7224 25.2314 16.9363 25.0936C17.3622 24.816 17.7976 24.5709 18.3025 24.4839C19.2351 24.3248 20.009 24.5921 20.6013 25.4044C20.6905 25.5378 20.7893 25.6649 20.8969 25.7847C20.9758 25.8679 21.0744 25.931 21.1842 25.9683C21.294 26.0056 21.4116 26.016 21.5265 25.9987C21.6414 25.9813 21.7502 25.9366 21.8432 25.8687C21.9361 25.8007 22.0105 25.7115 22.0597 25.6089C22.2898 25.2015 22.4542 24.7622 22.5474 24.3063C22.6797 23.602 22.9842 22.9391 23.4353 22.3736C24.1873 21.4077 25.1818 21.0034 26.3169 21.1598C27.8152 21.3661 28.8353 22.3153 29.4191 23.7993C29.8166 24.7914 29.8664 25.8835 29.5607 26.906C29.2327 28.0329 28.5691 28.8387 27.5348 29.2541C26.566 29.6436 25.6334 29.5104 24.7254 29.0006C24.4812 28.8645 24.2556 28.6988 24.0542 28.5075C24.0257 28.4797 23.9943 28.4464 24.0038 28.4094C23.9601 28.4187 23.9145 28.3761 23.8708 28.3733C23.8822 28.3067 23.8945 28.2392 23.9059 28.1716L24.0495 28.3622C24.1446 28.4113 24.2396 28.4547 24.3347 28.5084C25.2398 28.9941 26.1648 28.8368 26.8778 28.0643C27.4416 27.4537 27.6907 26.6914 27.7173 25.8485C27.7477 24.8503 27.4834 23.9566 26.7989 23.2451C26.1886 22.6104 25.1989 22.3486 24.4108 22.8482C24.3366 22.8565 24.2657 22.8823 24.2042 22.9234C24.1427 22.9646 24.0925 23.0197 24.058 23.0841L23.9848 23.147C23.9104 23.1723 23.8435 23.215 23.79 23.2713C23.7364 23.3276 23.6979 23.3958 23.6778 23.4699C23.6466 23.4875 23.6198 23.5115 23.5993 23.5403C23.5787 23.5691 23.565 23.6019 23.5589 23.6364C23.5436 23.6398 23.5292 23.6461 23.5164 23.655C23.5037 23.6639 23.4929 23.6752 23.4848 23.6882C23.4766 23.7013 23.4712 23.7158 23.4689 23.7309C23.4666 23.746 23.4675 23.7614 23.4715 23.7761C23.1587 24.2054 23.0836 24.7291 23.0132 25.2398C22.8963 26.0835 23.0284 26.8856 23.481 27.6064L23.2823 27.6841C23.1948 27.537 23.0779 27.45 22.9086 27.4667C22.8411 27.3797 22.7736 27.3797 22.7042 27.4667C22.6201 27.4592 22.536 27.4818 22.4677 27.5301C22.3993 27.5784 22.3513 27.6492 22.3325 27.7294C22.3134 27.7344 22.2957 27.7439 22.2812 27.757C22.2666 27.7701 22.2555 27.7865 22.2489 27.8047C22.2423 27.8229 22.2403 27.8424 22.2431 27.8615C22.2459 27.8806 22.2534 27.8988 22.265 27.9144C22.2499 27.9288 22.2379 27.9459 22.2297 27.9648C22.2214 27.9837 22.2172 28.004 22.2172 28.0245C22.2172 28.0451 22.2214 28.0654 22.2297 28.0843C22.2379 28.1032 22.2499 28.1203 22.265 28.1346C22.2428 28.1813 22.2371 28.2337 22.2486 28.2839C22.2601 28.3341 22.2882 28.3791 22.3287 28.4122C22.3252 28.4484 22.3294 28.4849 22.3411 28.5195C22.6947 29.0802 23.0731 29.6177 23.6217 29.9803C23.6426 30.0645 23.6892 30.108 23.7728 30.096C23.9967 30.3277 24.2745 30.5038 24.5828 30.6095C24.8215 30.7436 25.0477 30.9166 25.3367 30.9C25.3538 30.9214 25.3777 30.9368 25.4047 30.9437C25.4317 30.9505 25.4603 30.9485 25.486 30.9379C25.4953 30.955 25.5086 30.9698 25.5247 30.981C25.5409 30.9923 25.5596 30.9997 25.5792 31.0028C25.5988 31.0058 25.6189 31.0044 25.6379 30.9986C25.6569 30.9928 25.6742 30.9828 25.6885 30.9694C25.7122 30.9905 25.742 31.0039 25.7739 31.0077C25.8058 31.0115 25.8381 31.0056 25.8663 30.9906C25.9304 31.0408 26.0076 31.0726 26.0892 31.0824C26.1708 31.0922 26.2536 31.0796 26.3283 31.0461C26.4667 31.0924 26.6169 31.0924 26.7552 31.0461C26.8175 31.0826 26.8909 31.0967 26.9628 31.0861C27.0347 31.0754 27.1005 31.0407 27.1488 30.9879C27.1763 31.0034 27.2082 31.01 27.2399 31.0067C27.2715 31.0034 27.3012 30.9903 27.3247 30.9694C27.4844 31.0313 27.6175 30.9694 27.743 30.8676C27.7694 30.8773 27.7984 30.8779 27.8252 30.8693C27.852 30.8607 27.875 30.8435 27.8903 30.8204C27.9897 30.8266 28.0892 30.8099 28.1806 30.7714C28.2719 30.733 28.3527 30.674 28.4161 30.5993C28.4673 30.6011 28.5181 30.5894 28.5632 30.5655C28.6082 30.5415 28.6457 30.5062 28.6718 30.4633C28.7526 30.4809 28.8011 30.4457 28.8173 30.3587L28.8848 30.319C28.9478 30.3235 29.0105 30.3069 29.0624 30.2719C29.1143 30.2369 29.1523 30.1855 29.17 30.1265C29.2028 30.1238 29.234 30.1115 29.2595 30.0912C29.2849 30.0709 29.3035 30.0435 29.3126 30.0127C29.3659 30.0105 29.4166 29.9899 29.4558 29.9547C29.495 29.9194 29.52 29.8718 29.5265 29.8203C29.7105 29.7044 29.8582 29.5415 29.9534 29.3494C29.9715 29.349 29.9893 29.3447 30.0055 29.3368C30.0217 29.3289 30.036 29.3176 30.0471 29.3037C30.0583 29.2898 30.0662 29.2736 30.0702 29.2564C30.0742 29.2392 30.0743 29.2214 30.0703 29.2041C30.1939 29.1121 30.2812 28.9814 30.3175 28.8341C30.3361 28.8302 30.3537 28.8225 30.369 28.8116C30.3844 28.8007 30.3973 28.7868 30.4068 28.7707C30.4163 28.7547 30.4222 28.7369 30.4242 28.7185C30.4262 28.7001 30.4242 28.6814 30.4183 28.6638C30.5409 28.5787 30.5666 28.4362 30.6027 28.3002C30.693 28.278 30.7206 28.2197 30.6883 28.1272C30.7159 28.1054 30.7367 28.0766 30.7483 28.0438C30.7599 28.0111 30.7618 27.9759 30.7539 27.9422C30.8097 27.9033 30.853 27.8498 30.8787 27.7879C30.9045 27.726 30.9116 27.6582 30.8993 27.5925C30.985 27.4535 31.0217 27.2911 31.0039 27.1299C31.057 27.066 31.0933 26.9905 31.1099 26.91C31.1264 26.8294 31.1227 26.7462 31.099 26.6673C31.1206 26.647 31.135 26.6207 31.1403 26.5919C31.1456 26.5632 31.1415 26.5336 31.1285 26.5073C31.1776 26.4431 31.2074 26.3669 31.2146 26.2871C31.2218 26.2074 31.2062 26.1273 31.1693 26.0558C31.2163 25.7773 31.2127 25.493 31.1589 25.2157C31.1778 25.1851 31.1835 25.1485 31.1748 25.1138C31.1661 25.0792 31.1436 25.0493 31.1123 25.0307L31.1037 25.0427C31.1121 25.0273 31.122 25.0128 31.1332 24.9992C31.1121 24.4128 30.9572 23.8382 30.6797 23.3173C30.6892 23.2996 30.695 23.2802 30.6968 23.2603C30.6985 23.2404 30.6962 23.2203 30.6899 23.2013C30.6836 23.1823 30.6735 23.1646 30.6602 23.1495C30.6469 23.1343 30.6305 23.1218 30.6122 23.1128Z" fill="#464646"/>
<path d="M24.047 28.3618C24.0279 28.3729 24.0134 28.3901 24.0061 28.4105C24.0169 28.4077 24.027 28.4029 24.0359 28.3963C24.0447 28.3896 24.052 28.3813 24.0574 28.3719L24.0517 28.3637L24.047 28.3618Z" fill="#464646"/>
<path d="M35.9771 23.7274C36.0009 23.7854 36.0387 23.8371 36.0871 23.8781C36.1355 23.9191 36.1933 23.9483 36.2556 23.9633C36.2547 23.7589 36.1358 23.7154 35.9771 23.7274Z" fill="#464646"/>
<path d="M23.2618 31.5955C23.0555 31.4355 22.8511 31.4105 22.6381 31.5715C22.4641 31.7028 22.2854 31.8268 22.12 31.9693C21.7882 32.2533 21.4088 32.4717 21.1113 32.8019C21.0865 32.7955 21.0713 32.8019 21.0666 32.8325L20.171 33.2543C20.0568 33.2695 19.949 33.3146 19.8592 33.3848C19.361 33.5819 18.8676 33.7937 18.3637 33.9723C17.6982 34.2101 17.0327 34.5061 16.2997 34.4487C16.1206 34.4498 15.9436 34.4866 15.7797 34.557C15.7489 34.5642 15.7213 34.5811 15.7012 34.605C15.6812 34.6288 15.6696 34.6585 15.6685 34.6893C15.6711 34.7201 15.6835 34.7494 15.7039 34.773C15.7244 34.7967 15.7518 34.8137 15.7825 34.8216C15.9869 34.8836 16.1961 34.9289 16.3967 35.002C17.6849 35.4646 18.995 35.4896 20.3212 35.2536C20.9544 35.1417 21.5486 34.8938 22.1494 34.6634C23.0117 34.334 23.5489 33.6688 23.8864 32.7751C23.9814 32.529 23.9586 32.3357 23.8037 32.1423C23.6456 31.9401 23.4637 31.7566 23.2618 31.5955Z" fill="#464646"/>
<path d="M1.14014 25.4568C1.1271 25.738 1.14656 26.0198 1.19813 26.2968L1.42725 26.0026C1.39279 26.01 1.35673 26.0046 1.32613 25.9875C1.29553 25.9704 1.2726 25.9428 1.26183 25.9101C1.25045 25.8782 1.24373 25.8449 1.24186 25.8111C1.24463 25.7803 1.24463 25.7494 1.24186 25.7186C1.23331 25.6871 1.27419 25.6862 1.2219 25.7353L1.11637 25.7954C1.08309 25.8065 1.02985 25.7584 1.10306 25.8111C1.12139 25.8233 1.14044 25.8344 1.1601 25.8444C1.20383 25.8694 1.24661 25.8962 1.2894 25.924C1.31602 25.9416 1.3664 25.9925 1.39778 25.9971L1.40538 26.0026C1.43295 26.0239 1.43105 26.0026 1.40538 25.9332C1.39683 25.9388 1.39112 25.998 1.38827 26.0082C1.34457 26.2122 1.31975 26.4197 1.31412 26.628C1.31026 26.8363 1.3265 27.0445 1.3626 27.2498C1.39588 27.4477 1.45767 27.6411 1.47764 27.8419C1.50996 28.2462 1.49665 28.668 1.64496 29.0557C1.71158 29.2331 1.82863 29.3884 1.98246 29.5035C2.13172 29.6173 2.28574 29.72 2.42454 29.8467C2.59329 29.9963 2.74881 30.1594 2.88944 30.3343C2.99972 30.4758 3.08718 30.6433 3.02824 30.8218H3.48648C3.4203 30.6428 3.3281 30.474 3.21268 30.3204C3.17957 30.2688 3.1275 30.2315 3.06707 30.216C3.00665 30.2006 2.94244 30.2081 2.88754 30.2371C2.83361 30.2685 2.79451 30.3193 2.77869 30.3785C2.76286 30.4377 2.77156 30.5005 2.80292 30.5535C2.89657 30.6727 2.97243 30.8041 3.02824 30.944C3.04324 30.9917 3.07359 31.0335 3.11484 31.0632C3.15609 31.0929 3.20605 31.109 3.25736 31.109C3.30868 31.109 3.35863 31.0929 3.39988 31.0632C3.44113 31.0335 3.47149 30.9917 3.48648 30.944C3.66997 30.3889 3.16704 29.8994 2.79247 29.5488C2.69493 29.4577 2.59209 29.3721 2.48444 29.2925C2.387 29.2289 2.29424 29.1587 2.20683 29.0825C2.03951 28.9197 2.01669 28.6301 1.98817 28.4136C1.95299 28.1222 1.9701 27.828 1.91021 27.5393C1.84213 27.2688 1.80137 26.9924 1.78852 26.7141C1.78707 26.5842 1.7947 26.4544 1.81134 26.3255C1.84458 26.1956 1.86621 26.0631 1.87598 25.9295C1.87028 25.7741 1.7619 25.6825 1.64211 25.5974C1.52782 25.5124 1.40559 25.4381 1.27704 25.3754C1.23911 25.354 1.19722 25.3401 1.15377 25.3346C1.11032 25.329 1.06618 25.3319 1.02386 25.343C0.981551 25.3541 0.941905 25.3732 0.907203 25.3992C0.872501 25.4252 0.843427 25.4577 0.821648 25.4947C0.761025 25.6384 0.748386 25.797 0.785522 25.948C0.838761 26.2395 1.10781 26.5031 1.4282 26.4698C1.46454 26.469 1.50022 26.4601 1.53258 26.444C1.56495 26.4279 1.59317 26.4049 1.61517 26.3768C1.63718 26.3486 1.65239 26.316 1.65968 26.2813C1.66698 26.2467 1.66617 26.2109 1.65732 26.1766C1.61614 25.9398 1.60243 25.6993 1.61644 25.4596C1.6326 25.1626 1.15725 25.1626 1.14109 25.4596L1.14014 25.4568Z" fill="#464646"/>
<path d="M4.7627 31.0768C4.79883 30.2615 4.80485 29.4455 4.78076 28.6288C4.77221 28.3319 4.29685 28.3309 4.30541 28.6288C4.32949 29.4448 4.32347 30.2608 4.28735 31.0768C4.27499 31.3748 4.75034 31.3738 4.7627 31.0768Z" fill="#464646"/>
<path d="M32.2818 32.8606C32.2752 32.8819 32.2676 32.9041 32.259 32.9244L32.2828 32.8689C32.274 32.8897 32.2625 32.9093 32.2486 32.9272L32.2856 32.881C32.2778 32.8897 32.2692 32.8977 32.26 32.905L32.3084 32.8689C32.3011 32.8744 32.2931 32.8791 32.2847 32.8828L32.3417 32.8597L32.3132 32.8671L32.3769 32.8587C32.3636 32.8601 32.3502 32.8601 32.337 32.8587L32.4007 32.8671C32.3527 32.8573 32.3041 32.8505 32.2552 32.8467C32.2071 32.8462 32.1592 32.8518 32.1126 32.8634C32.0666 32.8755 32.0225 32.8935 31.9814 32.917C31.9548 32.9318 31.931 32.9494 31.9034 32.9624L31.9605 32.9383C31.9502 32.9428 31.9393 32.9459 31.9282 32.9476L31.9919 32.9402H31.97L32.0337 32.9485H32.0185L32.0755 32.9716L32.0613 32.9642C32.034 32.9486 32.0038 32.9386 31.9724 32.9346C31.941 32.9306 31.9092 32.9328 31.8787 32.9411C31.8336 32.9531 31.7931 32.9779 31.7624 33.0122C31.7316 33.0465 31.712 33.0889 31.7059 33.1341C31.6998 33.1792 31.7075 33.2251 31.7281 33.266C31.7487 33.3069 31.7813 33.3409 31.8217 33.3639C31.8697 33.3908 31.9241 33.4049 31.9795 33.4049C32.0349 33.4049 32.0893 33.3908 32.1373 33.3639C32.1763 33.3463 32.2096 33.3195 32.2495 33.3028L32.1925 33.326C32.216 33.3167 32.2406 33.3102 32.2657 33.3065L32.202 33.3149C32.2269 33.3116 32.2521 33.3116 32.2771 33.3149L32.2143 33.3065C32.2343 33.3065 32.2533 33.3139 32.2733 33.3176C32.3278 33.3287 32.3841 33.3287 32.4387 33.3176C32.5017 33.3027 32.5591 33.2706 32.6041 33.2251C32.67 33.1575 32.7166 33.0742 32.7391 32.9836C32.7552 32.9234 32.7467 32.8594 32.7153 32.8051C32.6918 32.7658 32.6568 32.7341 32.6147 32.714C32.5727 32.694 32.5256 32.6865 32.4792 32.6924C32.4328 32.6983 32.3892 32.7174 32.3539 32.7474C32.3187 32.7773 32.2932 32.8167 32.2809 32.8606H32.2818Z" fill="#464646"/>
<path d="M37.154 27.6525C37.4602 27.6525 37.4611 27.1899 37.154 27.1899C36.8469 27.1899 36.8479 27.6525 37.154 27.6525Z" fill="#464646"/>
<path d="M36.3025 34.0768C36.4356 33.8998 36.5277 33.6968 36.5725 33.4819C36.6343 33.2552 36.6951 33.0276 36.7389 32.7973C36.7826 32.5669 36.7912 32.3449 36.8111 32.1163C36.8111 32.1163 36.8111 32.0941 36.8111 32.0932C36.8168 32.0735 36.8149 32.0735 36.8054 32.0932C36.8038 32.0989 36.8008 32.1042 36.7967 32.1085C36.7925 32.1129 36.7874 32.1162 36.7816 32.1182C36.7588 32.1311 36.7636 32.1311 36.7959 32.1182L36.833 32.1071L36.9081 32.0858C37.0213 32.0573 37.1363 32.0357 37.2522 32.0211C37.3787 32.0035 37.4481 31.8453 37.4177 31.7361C37.3995 31.6779 37.3592 31.6287 37.3049 31.5986C37.2506 31.5685 37.1865 31.5597 37.1258 31.5742C36.9176 31.602 36.6172 31.6334 36.4603 31.7824C36.2835 31.9489 36.3367 32.2394 36.311 32.4559C36.2801 32.6873 36.2327 32.9164 36.1694 33.1414C36.139 33.2562 36.1085 33.3709 36.0743 33.4847C36.0559 33.5787 36.0181 33.6681 35.9631 33.7474C35.92 33.7915 35.896 33.8499 35.896 33.9107C35.896 33.9715 35.92 34.03 35.9631 34.074C36.0076 34.1172 36.068 34.1415 36.1309 34.1415C36.1938 34.1415 36.2541 34.1172 36.2987 34.074L36.3025 34.0768Z" fill="#464646"/>
<path d="M35.0579 23.0869C35.0313 23.0869 35.0797 23.0971 35.0769 23.0953C35.1148 23.1119 35.1508 23.1323 35.1843 23.1563C35.2613 23.2054 35.3355 23.2599 35.4106 23.3118C35.5503 23.4043 35.6958 23.5014 35.8251 23.606C36.1103 23.8354 36.3822 24.0926 36.657 24.3368C36.702 24.3792 36.7622 24.4029 36.8248 24.4029C36.8874 24.4029 36.9475 24.3792 36.9926 24.3368C37.0367 24.2934 37.0615 24.2347 37.0615 24.1736C37.0615 24.1124 37.0367 24.0537 36.9926 24.0103C36.6788 23.7327 36.3737 23.4348 36.0352 23.1832C35.8764 23.0647 35.711 22.9537 35.5484 22.8408C35.3583 22.7076 35.1777 22.6068 34.9314 22.641C34.8708 22.6577 34.8193 22.6969 34.7881 22.7502C34.757 22.8036 34.7487 22.8667 34.7651 22.926C34.7836 22.984 34.8242 23.0331 34.8787 23.063C34.9331 23.0929 34.9972 23.1015 35.0579 23.0869Z" fill="#464646"/>
<path d="M36.2558 23.3271L36.2367 23.3132L36.1797 23.2901C36.1486 23.2816 36.1157 23.2816 36.0846 23.2901C36.0635 23.2896 36.0427 23.295 36.0247 23.3058C35.9954 23.315 35.9689 23.3312 35.9477 23.353L35.9106 23.4002L35.8869 23.4557C35.8782 23.4859 35.8782 23.5179 35.8869 23.5482C35.8885 23.5788 35.8983 23.6085 35.9154 23.6342L35.9211 23.6444L35.8973 23.5889C35.8978 23.5935 35.8978 23.5982 35.8973 23.6028L35.8888 23.5417V23.5565L35.8973 23.4945C35.8978 23.4991 35.8978 23.5038 35.8973 23.5084L35.9211 23.4529L36.1892 23.3465L36.2453 23.3696L36.2928 23.4057L36.3299 23.452V23.4473L36.3537 23.5028C36.3466 23.4735 36.3319 23.4464 36.3109 23.4242C36.294 23.3992 36.2712 23.3786 36.2443 23.3641L36.1873 23.3409C36.1459 23.3298 36.1022 23.3298 36.0609 23.3409C36.0609 23.3409 36.0057 23.3631 36.0038 23.3641C35.9948 23.3699 35.9862 23.3764 35.9781 23.3835C35.9781 23.3835 35.9601 23.3955 35.9525 23.402L35.9144 23.4492C35.9028 23.4672 35.8941 23.4869 35.8888 23.5075C35.8888 23.5075 35.8802 23.5676 35.8802 23.5695C35.8802 23.575 35.8878 23.6259 35.8888 23.6314C35.8888 23.6314 35.9125 23.686 35.9125 23.687C35.9244 23.7036 35.9371 23.7197 35.9506 23.7351L35.9991 23.7712L36.0276 23.7832C36.0367 23.7877 36.0463 23.7914 36.0561 23.7943L36.1198 23.8026L36.1512 23.798H36.1835C36.194 23.798 36.2063 23.7887 36.2139 23.786C36.224 23.7823 36.2339 23.7779 36.2434 23.773L36.2681 23.7545L36.2919 23.7369L36.3109 23.7138C36.2985 23.7286 36.3242 23.6971 36.3299 23.6888C36.3299 23.6888 36.3527 23.6379 36.3546 23.6333C36.3546 23.6333 36.3632 23.5732 36.3632 23.5713L36.3432 23.501L36.3194 23.4464C36.3194 23.4464 36.2833 23.4002 36.2814 23.3992C36.2814 23.3992 36.2358 23.3641 36.2329 23.3622C36.2066 23.3455 36.176 23.3362 36.1445 23.3354C36.1134 23.3269 36.0805 23.3269 36.0494 23.3354C36.0193 23.3423 35.9914 23.3566 35.9686 23.377C35.9425 23.3929 35.9212 23.4153 35.9068 23.4418L35.8831 23.4973C35.8717 23.5376 35.8717 23.5801 35.8831 23.6203L35.9068 23.6749C35.9273 23.7096 35.9568 23.7383 35.9924 23.7582L35.9439 23.7221L35.9068 23.6749L35.8831 23.6194L35.8745 23.5574L35.8831 23.4964L35.9068 23.4409L35.9439 23.3937L35.9915 23.3576L36.0485 23.3345L36.1112 23.3261L36.174 23.3345L36.231 23.3576L36.2786 23.3937L36.3156 23.4409L36.3394 23.4954L36.348 23.5574L36.3394 23.6185L36.3156 23.674L36.2786 23.7212L36.2301 23.7573L36.174 23.7804L35.8812 23.6194L35.9049 23.6749L35.942 23.7212C35.9503 23.7283 35.9593 23.7348 35.9686 23.7406C35.977 23.7481 35.9859 23.7549 35.9953 23.761L36.0238 23.7721L36.0523 23.7841L36.116 23.7924C36.1489 23.7946 36.1818 23.7879 36.2111 23.773C36.2307 23.7674 36.2486 23.7572 36.2634 23.7434C36.289 23.7273 36.31 23.705 36.3242 23.6786L36.348 23.6231C36.3485 23.6207 36.3485 23.6182 36.348 23.6157L36.3565 23.5547V23.5426C36.3565 23.5315 36.3565 23.5186 36.3518 23.5084C36.351 23.4972 36.3494 23.4861 36.347 23.4751C36.3476 23.4727 36.3476 23.4701 36.347 23.4677C36.347 23.4575 36.3375 23.4455 36.3337 23.4372C36.3299 23.4288 36.3252 23.4159 36.3204 23.4057V23.3992L35.9953 23.7156L36.0143 23.7295C36.0406 23.7462 36.0712 23.7555 36.1027 23.7563C36.1338 23.7648 36.1667 23.7648 36.1978 23.7563C36.2563 23.7376 36.3065 23.7001 36.3404 23.65L36.3641 23.5944C36.3755 23.5542 36.3755 23.5117 36.3641 23.4714L36.3432 23.4085C36.3225 23.3743 36.293 23.3459 36.2577 23.3261L36.2558 23.3271Z" fill="#464646"/>
</svg>
