<svg width="24" height="24" viewBox="0 0 24 24" fill="none" xmlns="http://www.w3.org/2000/svg">
<path d="M19.6 3.60001C19.4 3.40001 19.1 3.30001 18.8 3.40001C16.6 3.90001 14.4 3.40001 12.6 2.10001C12.3 1.90001 11.8 1.90001 11.5 2.10001C9.6 3.40001 7.4 3.90001 5.2 3.40001C4.7 3.30001 4.1 3.70001 4 4.20001C4 4.30001 4 4.30001 4 4.40001V11.9C4 14.8 5.4 17.5 7.8 19.2L11.5 21.8C11.8 22 12.3 22 12.7 21.8L16.4 19.2C18.8 17.5 20.2 14.8 20.2 11.9V4.40001C20 4.10001 19.9 3.80001 19.6 3.60001ZM14 13H13V14C13 14.6 12.6 15 12 15C11.4 15 11 14.6 11 14V13H10C9.4 13 9 12.6 9 12C9 11.4 9.4 11 10 11H11V10C11 9.40001 11.4 9.00001 12 9.00001C12.6 9.00001 13 9.40001 13 10V11H14C14.6 11 15 11.4 15 12C15 12.6 14.6 13 14 13Z" fill="#333851"/>
</svg>
